<svg width="131" height="128" viewBox="0 0 131 128" fill="none" xmlns="http://www.w3.org/2000/svg">
<path d="M0 0H130.327V128H0V0Z" fill="black"/>
<path d="M56.563 115.674C56.6815 115.002 56.7407 114.272 56.7407 113.481V76.2667H62.6667L78.3704 100.978V78.2815C78.3704 77.1951 78.2716 76.5235 78.0741 76.2667H86.0741C85.9753 77.0568 85.9259 77.9259 85.9259 78.8741V115.674H79.7629L64.2963 91.9407V115.674H56.563Z" fill="white"/>
<path d="M96.0296 76.0593C98.7753 75.7037 101.59 75.5259 104.474 75.5259C109.847 75.5259 113.926 76.7901 116.711 79.3185C119.516 81.8272 120.918 85.5901 120.918 90.6074C120.918 95.0914 119.388 98.637 116.326 101.244C113.462 103.694 109.778 104.919 105.274 104.919C104.76 104.919 104.198 104.889 103.585 104.83V115.674H96.0296V76.0593ZM105.363 82.6667C104.77 82.6667 104.178 82.6864 103.585 82.7259V98.3111C104.217 98.3901 104.988 98.4296 105.896 98.4296C106.805 98.4296 107.753 98.242 108.741 97.8667C109.728 97.4716 110.558 96.9284 111.23 96.237C112.632 94.7951 113.333 92.8988 113.333 90.5482C113.333 85.2938 110.677 82.6667 105.363 82.6667Z" fill="white"/>
</svg>
